# xmcd
#
# Track frame offsets: 
#        150
#        12360
#        24408
#        47931
#        60808
#        70877
#        84011
#        95531
#        106048
#        117743
#        128654
#        140608
#        150470
#        159708
#        173270
#        184198
#        196078
#        207995
#        221177
#        233635
#        246165
#        258131
#        268186
#        279325
#        290824
#        304561
#        315675
#        325682
#
# Disc length: 4498 seconds
#
# Revision: 0
# Processed by: cddbd v1.5.2PL0 Copyright (c) Steve Scherf et al.
# Submitted via: ExactAudioCopy v0.99pb4
#
DISCID=8211901c
DTITLE=Joe Dancer's - Tired Of Not Dancing [Volume Two]
DYEAR=2008
DGENRE=Soul
TTITLE0=Going To A Go-Go [Smokey Robinson and The Miracles]
TTITLE1=Shake And Fingerpop [Jr. Walker and The All-Stars]
TTITLE2=The Funky 16 Corners [The Highlighters]
TTITLE3=Todo Gira [Los Impala]
TTITLE4=Evil [Howlin' Wolf]
TTITLE5=Big Bird [Eddie Floyd]
TTITLE6=Love Chain [Candi Staton]
TTITLE7=Stereo Freeze [The Stereos]
TTITLE8=Hey Hey Baby [Otis Redding]
TTITLE9=Baby, Baby, Baby [Sam Cooke]
TTITLE10=Everybody's Moving [Glen Glenn]
TTITLE11=The Slummer The Slum [The 5 Royales]
TTITLE12=Burnt Toast And Black Coffee [Mike Pedicin]
TTITLE13=Ride On Josephine [Bo Diddley]
TTITLE14=Black Cadillac [Joyce Green]
TTITLE15=Mellow Down Easy [Little Walter]
TTITLE16=I Don't Know About You [Lloyd Nolan]
TTITLE17=I Found A Love [The Falcons]
TTITLE18=I'm Gonna Move To The Outskirts Of Town [Billy Ward and The Dom
TTITLE18=inoes]
TTITLE19=I'm Glad You're Mine [Al Green]
TTITLE20=I'd Rather Be Blind, Crippled And Crazy [O.V. Wright]
TTITLE21=You Can't Take It [Linda Jones]
TTITLE22=Adios Señorita [Edwin Starr]
TTITLE23=It's Fantastic [Smokey Robinson and The Miracles]
TTITLE24=Oh Baby Don't You Weep [Luther Ingram]
TTITLE25=Summertime [Tony Ronald]
TTITLE26=Didn't It Rain [Evelyn Freeman and The Exciting Voices]
TTITLE27=Golden Gate Gospel Train [The Golden Gate Quartet]
EXTD=
EXTT0=
EXTT1=
EXTT2=
EXTT3=
EXTT4=
EXTT5=
EXTT6=
EXTT7=
EXTT8=
EXTT9=
EXTT10=
EXTT11=
EXTT12=
EXTT13=
EXTT14=
EXTT15=
EXTT16=
EXTT17=
EXTT18=
EXTT19=
EXTT20=
EXTT21=
EXTT22=
EXTT23=
EXTT24=
EXTT25=
EXTT26=
EXTT27=
PLAYORDER=
